<svg xmlns="http://www.w3.org/2000/svg" data-name="Layer 1" viewBox="0 0 512 512"><polygon fill="#c4e2ff" points="66.12 482.56 108.554 334.803 137.88 341.582 95.446 489.339 66.12 482.56"/><path fill="#b3dafe" d="M94.48586,453.45075l60.4348,46.72305c2.33652,1.80639.51675,4.96318-2.42862,4.213L9.74653,468.02933c-2.94538-.75019-3.01383-4.38791-.09136-4.85483l75.59078-12.07717A12.16913,12.16913,0,0,1,94.48586,453.45075Z"/><path fill="#c4e2ff" d="M240.96,118.27c-.83984,26.46-5.56006,56.69995-14.43994,88.04C201.33984,295.16992,152.25,359.16992,116.87012,349.25,81.5,339.33984,73.24023,259.26,98.41992,170.3999,107.31006,139.04,119.16992,110.78,132.35986,87.77A9.81441,9.81441,0,0,1,143.52,83.17993L233.81982,108.49A9.80507,9.80507,0,0,1,240.96,118.27Z"/><path fill="#b3dafe" d="M236.334,109.60376a382.74939,382.74939,0,0,1-13.89355,77.28686c-25.17969,88.85987-74.26953,152.85987-109.64941,142.94-12.542-3.51392-21.6709-15.85816-27.11329-34.28052,4.03223,29.06714,14.64454,49.06348,31.19239,53.7C152.25,359.16992,201.33984,295.16992,226.52,206.31006,235.3999,174.97,240.12012,144.73,240.96,118.27A9.81577,9.81577,0,0,0,236.334,109.60376Z"/><path fill="#fed402" d="M226.52,206.31006C201.33984,295.16992,152.25,359.16992,116.87012,349.25,81.5,339.33984,73.24023,259.26,98.41992,170.3999c22.37012-3.61987,37.53028.3501,47.75,5.43018,15.1499,7.54,18.73,17.16992,33.96,24.75976C196.2002,208.60986,213.25,208.35986,226.52,206.31006Z"/><path fill="#fac600" d="M116.87012,319.25C97.77344,313.89941,86.585,288.08716,84.29,251.48877c-2.90869,52.08008,8.60449,91.0437,32.58008,97.76123C152.25,359.16992,201.33984,295.16992,226.52,206.31006c-3.17871.491-6.57861.87353-10.125,1.06885C189.65967,279.56958,147.96973,327.96973,116.87012,319.25Z"/><polygon fill="#c4e2ff" points="445.88 482.56 403.446 334.803 374.12 341.582 416.554 489.339 445.88 482.56"/><path fill="#b3dafe" d="M417.51414,453.45075l-60.4348,46.72305c-2.33652,1.80639-.51675,4.96318,2.42862,4.213l142.74551-36.35746c2.94538-.75019,3.01383-4.38791.09136-4.85483l-75.59078-12.07717A12.16913,12.16913,0,0,0,417.51414,453.45075Z"/><path fill="#c4e2ff" d="M395.12988,349.25C359.75,359.16992,310.66016,295.16992,285.48,206.31006,276.6001,174.97,271.87988,144.73,271.04,118.27a9.80507,9.80507,0,0,1,7.14014-9.78L368.48,83.17993A9.81441,9.81441,0,0,1,379.64014,87.77c13.18994,23.01,25.0498,51.27,33.93994,82.62988C438.75977,259.26,430.5,339.33984,395.12988,349.25Z"/><path fill="#b3dafe" d="M413.58008,170.3999C404.68994,139.04,392.83008,110.78,379.64014,87.77a9.8697,9.8697,0,0,0-3.02442-3.25171,396.94415,396.94415,0,0,1,21.96436,59.4773c25.17969,88.8601,16.91992,168.93994-18.4502,178.85009-20.68554,5.79981-46.05566-13.67675-68.5957-48.6084,25.63037,51.062,58.15723,82.14527,83.5957,75.0127C430.5,339.33984,438.75977,259.26,413.58008,170.3999Z"/><path fill="#fed402" d="M395.12988,349.25C359.75,359.16992,310.66016,295.16992,285.48,206.31006c13.27,2.0498,30.31982,2.2998,46.39014-5.72022,15.23-7.58984,18.81006-17.21972,33.96-24.75976,10.21972-5.08008,25.37988-9.05,47.75-5.43018C438.75977,259.26,430.5,339.33984,395.12988,349.25Z"/><path fill="#fac600" d="M413.58008,170.3999c-2.90235-.46972-5.67725-.80615-8.3418-1.03442,17.32031,78.7395,7.55713,145.58276-24.55664,154.58081-20.67334,5.79639-46.02637-13.6543-68.55664-48.54761,25.53857,50.36743,57.76074,80.92944,83.00488,73.85132C430.5,339.33984,438.75977,259.26,413.58008,170.3999Z"/><path fill="#fed402" d="M256 56a7.49943 7.49943 0 0 1-7.5-7.5V7.5a7.5 7.5 0 0 1 15 0v41A7.49943 7.49943 0 0 1 256 56zM294.27148 59.68945a7.50126 7.50126 0 0 1-6.04687-11.92968l21.72266-29.68848a7.49993 7.49993 0 1 1 12.10546 8.85742L300.33008 56.61719A7.4889 7.4889 0 0 1 294.27148 59.68945zM216.65137 58.2168a7.48891 7.48891 0 0 1-6.0586-3.07227l-20.6455-28.21582a7.49993 7.49993 0 1 1 12.10546-8.85742l20.64551 28.21582a7.50127 7.50127 0 0 1-6.04687 11.92969z"/></svg>